<svg width="16" height="12" viewBox="0 0 16 12" fill="none" xmlns="http://www.w3.org/2000/svg">
<path d="M13.289 6.08372L13.608 6.02791C13.3953 6.21395 13.165 6.36279 12.9169 6.47442C12.6334 6.58605 12.2791 6.64186 11.8538 6.64186C11.0742 6.64186 10.4186 6.36279 9.88704 5.80465C9.32004 5.28372 9.03655 4.50233 9.03655 3.46047C9.03655 2.45581 9.33776 1.61861 9.9402 0.948838C10.5426 0.316279 11.34 -4.07392e-07 12.3322 -3.20647e-07C13.3245 -2.33902e-07 14.1927 0.390697 14.9369 1.17209C15.6456 1.9907 16 3.12558 16 4.57674C16 6.47442 15.4153 8.11163 14.2458 9.48837C13.0764 10.9023 11.6235 11.7395 9.88704 12L9.88704 9.82325C10.8439 9.63721 11.6589 9.2093 12.3322 8.53953C12.9701 7.86977 13.289 7.05116 13.289 6.08372ZM4.25249 6.08372L4.57143 6.02791C4.3588 6.21395 4.12846 6.36279 3.8804 6.47442C3.5969 6.58605 3.24252 6.64186 2.81728 6.64186C2.03765 6.64186 1.38206 6.36279 0.850497 5.80465C0.283498 5.28372 6.55467e-07 4.50233 7.4655e-07 3.46046C8.34379e-07 2.45581 0.301217 1.6186 0.903653 0.948837C1.50609 0.316278 2.30343 -1.19739e-06 3.29568 -1.11065e-06C4.28793 -1.0239e-06 5.15615 0.390697 5.90033 1.17209C6.60908 1.9907 6.96346 3.12558 6.96346 4.57674C6.96346 6.47442 6.37874 8.11163 5.2093 9.48837C4.03987 10.9023 2.58693 11.7395 0.850496 12L0.850496 9.82325C1.80731 9.63721 2.62237 9.2093 3.29568 8.53953C3.93356 7.86977 4.25249 7.05116 4.25249 6.08372Z" fill="#0A84FF"/>
</svg>
