<svg width="16" height="12" viewBox="0 0 16 12" fill="none" xmlns="http://www.w3.org/2000/svg">
<path d="M2.71096 5.91628L2.39203 5.97209C2.60465 5.78605 2.83499 5.63721 3.08306 5.52558C3.36656 5.41395 3.72093 5.35814 4.14618 5.35814C4.9258 5.35814 5.5814 5.63721 6.11296 6.19535C6.67996 6.71628 6.96346 7.49767 6.96346 8.53953C6.96346 9.54418 6.66224 10.3814 6.0598 11.0512C5.45736 11.6837 4.66002 12 3.66777 12C2.67553 12 1.80731 11.6093 1.06312 10.8279C0.354374 10.0093 0 8.87442 0 7.42326C0 5.52558 0.584718 3.88837 1.75415 2.51163C2.92359 1.09768 4.37652 0.260466 6.11296 0V2.17675C5.15615 2.36279 4.34109 2.7907 3.66777 3.46047C3.0299 4.13023 2.71096 4.94884 2.71096 5.91628ZM11.7475 5.91628L11.4286 5.97209C11.6412 5.78605 11.8715 5.63721 12.1196 5.52558C12.4031 5.41395 12.7575 5.35814 13.1827 5.35814C13.9623 5.35814 14.6179 5.63721 15.1495 6.19535C15.7165 6.71628 16 7.49767 16 8.53953C16 9.54418 15.6988 10.3814 15.0963 11.0512C14.4939 11.6837 13.6966 12 12.7043 12C11.7121 12 10.8439 11.6093 10.0997 10.8279C9.39092 10.0093 9.03654 8.87442 9.03654 7.42326C9.03654 5.52558 9.62126 3.88837 10.7907 2.51163C11.9601 1.09768 13.4131 0.260466 15.1495 0V2.17675C14.1927 2.36279 13.3776 2.7907 12.7043 3.46047C12.0664 4.13023 11.7475 4.94884 11.7475 5.91628Z" fill="#0A84FF"/>
</svg>
